<svg width="20" height="20" viewBox="0 0 20 20" fill="none" xmlns="http://www.w3.org/2000/svg">
<g clip-path="url(#clip0_252_572)">
<path d="M17.7753 16.6511L14.8091 13.7067C15.9605 12.2699 16.5181 10.4464 16.3672 8.61085C16.2164 6.77535 15.3685 5.06745 13.998 3.83834C12.6275 2.60923 10.8385 1.95232 8.9989 2.0027C7.15928 2.05307 5.40887 2.8069 4.10758 4.10918C2.80629 5.41146 2.05303 7.1632 2.0027 9.00421C1.95236 10.8452 2.60876 12.6356 3.83694 14.0071C5.06512 15.3787 6.77172 16.2272 8.60583 16.3781C10.4399 16.5291 12.2621 15.9711 13.6978 14.8188L16.64 17.7633C16.7143 17.8383 16.8028 17.8978 16.9002 17.9385C16.9976 17.9791 17.1021 18 17.2077 18C17.3132 18 17.4177 17.9791 17.5152 17.9385C17.6126 17.8978 17.701 17.8383 17.7753 17.7633C17.9194 17.6141 18 17.4147 18 17.2072C18 16.9997 17.9194 16.8003 17.7753 16.6511ZM9.21243 14.8188C8.10552 14.8188 7.02346 14.4903 6.10309 13.8749C5.18272 13.2595 4.46538 12.3847 4.04178 11.3613C3.61818 10.3379 3.50735 9.2117 3.7233 8.12523C3.93925 7.03875 4.47228 6.04076 5.25499 5.25746C6.0377 4.47416 7.03493 3.94072 8.12058 3.72461C9.20622 3.50849 10.3315 3.61941 11.3542 4.04333C12.3768 4.46725 13.2509 5.18514 13.8659 6.10621C14.4809 7.02727 14.8091 8.11015 14.8091 9.21791C14.8091 10.7034 14.2195 12.128 13.1699 13.1784C12.1203 14.2287 10.6968 14.8188 9.21243 14.8188Z" fill="#8D8D8D"/>
</g>
<defs>
<clipPath id="clip0_252_572">
<rect width="20" height="20" fill="white"/>
</clipPath>
</defs>
</svg>
