<svg width="20" height="20" viewBox="0 0 20 20" fill="none" xmlns="http://www.w3.org/2000/svg">
<path d="M7.50018 11.875C8.05452 11.8749 8.5932 12.059 9.03149 12.3984C9.46979 12.7378 9.78284 13.2133 9.92143 13.75H16.8752C17.0314 13.7497 17.182 13.8079 17.2974 13.9131C17.4128 14.0184 17.4847 14.163 17.4988 14.3185C17.5129 14.4741 17.4682 14.6293 17.3736 14.7535C17.2791 14.8778 17.1414 14.9622 16.9877 14.99L16.8752 15L9.92143 15.0013C9.7833 15.5385 9.47045 16.0145 9.03211 16.3544C8.59378 16.6943 8.05485 16.8787 7.50018 16.8787C6.9455 16.8787 6.40657 16.6943 5.96824 16.3544C5.5299 16.0145 5.21705 15.5385 5.07893 15.0013L3.12518 15C2.96899 15.0003 2.81836 14.9421 2.70295 14.8369C2.58753 14.7316 2.51569 14.587 2.50158 14.4315C2.48747 14.2759 2.53211 14.1207 2.6267 13.9965C2.72129 13.8722 2.85899 13.7878 3.01268 13.76L3.12518 13.75H5.07893C5.21751 13.2133 5.53057 12.7378 5.96886 12.3984C6.40715 12.059 6.94583 11.8749 7.50018 11.875ZM7.50018 13.125C7.16865 13.125 6.85071 13.2567 6.61629 13.4911C6.38187 13.7255 6.25018 14.0435 6.25018 14.375C6.25018 14.7065 6.38187 15.0245 6.61629 15.2589C6.85071 15.4933 7.16865 15.625 7.50018 15.625C7.8317 15.625 8.14964 15.4933 8.38406 15.2589C8.61848 15.0245 8.75018 14.7065 8.75018 14.375C8.75018 14.0435 8.61848 13.7255 8.38406 13.4911C8.14964 13.2567 7.8317 13.125 7.50018 13.125ZM12.5002 3.125C13.0545 3.12486 13.5932 3.30897 14.0315 3.64838C14.4698 3.98779 14.7828 4.46325 14.9214 5H16.8752C17.0314 4.99971 17.182 5.05791 17.2974 5.16314C17.4128 5.26836 17.4847 5.41298 17.4988 5.56853C17.5129 5.72407 17.4682 5.87926 17.3736 6.00354C17.2791 6.12782 17.1414 6.21217 16.9877 6.24L16.8752 6.25L14.9214 6.25125C14.7833 6.78845 14.4704 7.26447 14.0321 7.60436C13.5938 7.94425 13.0549 8.12872 12.5002 8.12872C11.9455 8.12872 11.4066 7.94425 10.9682 7.60436C10.5299 7.26447 10.217 6.78845 10.0789 6.25125L3.12518 6.25C2.96899 6.25029 2.81836 6.19209 2.70295 6.08686C2.58753 5.98164 2.51569 5.83702 2.50158 5.68147C2.48747 5.52593 2.53211 5.37074 2.6267 5.24646C2.72129 5.12218 2.85899 5.03783 3.01268 5.01L3.12518 5H10.0789C10.2175 4.46325 10.5306 3.98779 10.9689 3.64838C11.4072 3.30897 11.9458 3.12486 12.5002 3.125ZM12.5002 4.375C12.1687 4.375 11.8507 4.5067 11.6163 4.74112C11.3819 4.97554 11.2502 5.29348 11.2502 5.625C11.2502 5.95652 11.3819 6.27446 11.6163 6.50888C11.8507 6.7433 12.1687 6.875 12.5002 6.875C12.8317 6.875 13.1496 6.7433 13.3841 6.50888C13.6185 6.27446 13.7502 5.95652 13.7502 5.625C13.7502 5.29348 13.6185 4.97554 13.3841 4.74112C13.1496 4.5067 12.8317 4.375 12.5002 4.375Z" fill="#333333"/>
</svg>
